  0
SECTION
  2
HEADER
  9
$ACADVER
  1
AC1009
  0
ENDSEC
  0
SECTION
  2
ENTITIES
  0
CIRCLE
  5
90
  8
Layer_0
  62
0
  10
233.84647
  20
85.991272
  30
0
  40
17.499994
  0
CIRCLE
  5
90
  8
Layer_0
  62
0
  10
171.02148
  20
133.72156
  30
0
  40
1.9999994
  0
CIRCLE
  5
90
  8
Layer_0
  62
0
  10
296.02048
  20
133.26398
  30
0
  40
1.9999994
  0
POLYLINE
  5
90
  8
Layer_0
  62
0
  70
1
  66
1
  10
0
  20
0
  30
0
  0
VERTEX
  5
90
  8
Layer_0
  10
359.03818
  20
221
  0
VERTEX
  5
91
  8
Layer_0
  10
108.96181
  20
221
  0
VERTEX
  5
92
  8
Layer_0
  10
108.96181
  20
41
  0
VERTEX
  5
93
  8
Layer_0
  10
359.03818
  20
41
  0
VERTEX
  5
94
  8
Layer_0
  10
359.03818
  20
221
  0
SEQEND
  0
CIRCLE
  5
96
  8
Layer_0
  62
0
  10
293.42947
  20
205.77696
  30
0
  40
1.9999994
  0
POLYLINE
  5
96
  8
Layer_0
  62
0
  70
1
  66
1
  10
0
  20
0
  30
0
  0
VERTEX
  5
96
  8
Layer_0
  10
280.29077
  20
207.32214
  0
VERTEX
  5
97
  8
Layer_0
  10
190.29141
  20
207.65166
  0
VERTEX
  5
98
  8
Layer_0
  10
190.21819
  20
187.65179
  0
VERTEX
  5
99
  8
Layer_0
  10
280.21756
  20
187.32228
  0
VERTEX
  5
9a
  8
Layer_0
  10
280.29077
  20
207.32214
  0
SEQEND
  0
POLYLINE
  5
9c
  8
Layer_1
  62
12
  70
1
  66
1
  10
0
  20
0
  30
0
  0
VERTEX
  5
9c
  8
Layer_1
  10
232.59552
  20
166.1239
  0
VERTEX
  5
9d
  8
Layer_1
  10
234.75568
  20
169.97546
  0
VERTEX
  5
9e
  8
Layer_1
  10
238.97443
  20
169.97546
  0
VERTEX
  5
9f
  8
Layer_1
  10
235.07599
  20
163.90906
  0
VERTEX
  5
a0
  8
Layer_1
  10
239.34161
  20
157.45203
  0
VERTEX
  5
a1
  8
Layer_1
  10
234.99396
  20
157.45203
  0
VERTEX
  5
a2
  8
Layer_1
  10
232.5213
  20
161.47546
  0
VERTEX
  5
a3
  8
Layer_1
  10
230.04474
  20
157.45203
  0
VERTEX
  5
a4
  8
Layer_1
  10
225.72443
  20
157.45203
  0
VERTEX
  5
a5
  8
Layer_1
  10
230.04474
  20
163.97937
  0
VERTEX
  5
a6
  8
Layer_1
  10
226.11505
  20
169.97546
  0
VERTEX
  5
a7
  8
Layer_1
  10
230.38068
  20
169.97546
  0
VERTEX
  5
a8
  8
Layer_1
  10
232.59552
  20
166.1239
  0
SEQEND
  0
CIRCLE
  5
aa
  8
Layer_0
  62
0
  10
172.29248
  20
207.71696
  30
0
  40
1.9999994
  0
POLYLINE
  5
aa
  8
Layer_0
  62
0
  70
1
  66
1
  10
0
  20
0
  30
0
  0
VERTEX
  5
aa
  8
Layer_0
  10
357
  20
348.5
  0
VERTEX
  5
ab
  8
Layer_0
  10
107
  20
348.5
  0
VERTEX
  5
ac
  8
Layer_0
  10
107
  20
293.5
  0
VERTEX
  5
ad
  8
Layer_0
  10
357
  20
293.5
  0
VERTEX
  5
ae
  8
Layer_0
  10
357
  20
348.5
  0
SEQEND
  0
POLYLINE
  5
b0
  8
Layer_1
  62
12
  70
1
  66
1
  10
0
  20
0
  30
0
  0
VERTEX
  5
b0
  8
Layer_1
  10
332.95895
  20
324.18164
  0
VERTEX
  5
b1
  8
Layer_1
  10
331.95114
  20
324.18164
  0
VERTEX
  5
b2
  8
Layer_1
  10
331.95114
  20
326.56445
  0
VERTEX
  5
b3
  8
Layer_1
  10
331.60275
  20
326.32938
  0
VERTEX
  5
b4
  8
Layer_1
  10
331.22067
  20
326.1543
  0
VERTEX
  5
b5
  8
Layer_1
  10
330.90817
  20
326.04492
  0
VERTEX
  5
b6
  8
Layer_1
  10
330.90817
  20
326.86133
  0
VERTEX
  5
b7
  8
Layer_1
  10
331.1171
  20
326.93207
  0
VERTEX
  5
b8
  8
Layer_1
  10
331.31842
  20
327.02115
  0
VERTEX
  5
b9
  8
Layer_1
  10
331.51089
  20
327.12799
  0
VERTEX
  5
ba
  8
Layer_1
  10
331.69333
  20
327.25195
  0
VERTEX
  5
bb
  8
Layer_1
  10
331.82745
  20
327.3739
  0
VERTEX
  5
bc
  8
Layer_1
  10
331.94647
  20
327.50989
  0
VERTEX
  5
bd
  8
Layer_1
  10
332.04926
  20
327.65851
  0
VERTEX
  5
be
  8
Layer_1
  10
332.13474
  20
327.81836
  0
VERTEX
  5
bf
  8
Layer_1
  10
332.95895
  20
327.81836
  0
VERTEX
  5
c0
  8
Layer_1
  10
332.95895
  20
324.18164
  0
SEQEND
  0
POLYLINE
  5
c2
  8
Layer_1
  62
12
  70
1
  66
1
  10
0
  20
0
  30
0
  0
VERTEX
  5
c2
  8
Layer_1
  10
335.74411
  20
327.81445
  0
VERTEX
  5
c3
  8
Layer_1
  10
335.9281
  20
327.80038
  0
VERTEX
  5
c4
  8
Layer_1
  10
336.10855
  20
327.76477
  0
VERTEX
  5
c5
  8
Layer_1
  10
336.28351
  20
327.7081
  0
VERTEX
  5
c6
  8
Layer_1
  10
336.45114
  20
327.63086
  0
VERTEX
  5
c7
  8
Layer_1
  10
336.68524
  20
327.44232
  0
VERTEX
  5
c8
  8
Layer_1
  10
336.84854
  20
327.19772
  0
VERTEX
  5
c9
  8
Layer_1
  10
336.93231
  20
326.91577
  0
VERTEX
  5
ca
  8
Layer_1
  10
336.9277
  20
326.61523
  0
VERTEX
  5
cb
  8
Layer_1
  10
336.88696
  20
326.44717
  0
VERTEX
  5
cc
  8
Layer_1
  10
336.82312
  20
326.28738
  0
VERTEX
  5
cd
  8
Layer_1
  10
336.73737
  20
326.13818
  0
VERTEX
  5
ce
  8
Layer_1
  10
336.63083
  20
326.00195
  0
VERTEX
  5
cf
  8
Layer_1
  10
336.29105
  20
325.67957
  0
VERTEX
  5
d0
  8
Layer_1
  10
335.91208
  20
325.4043
  0
VERTEX
  5
d1
  8
Layer_1
  10
335.65204
  20
325.20941
  0
VERTEX
  5
d2
  8
Layer_1
  10
335.41208
  20
324.99023
  0
VERTEX
  5
d3
  8
Layer_1
  10
336.96286
  20
324.99023
  0
VERTEX
  5
d4
  8
Layer_1
  10
336.96286
  20
324.18164
  0
VERTEX
  5
d5
  8
Layer_1
  10
333.98239
  20
324.18164
  0
VERTEX
  5
d6
  8
Layer_1
  10
334.03784
  20
324.46555
  0
VERTEX
  5
d7
  8
Layer_1
  10
334.13589
  20
324.73584
  0
VERTEX
  5
d8
  8
Layer_1
  10
334.27438
  20
324.98785
  0
VERTEX
  5
d9
  8
Layer_1
  10
334.45114
  20
325.2168
  0
VERTEX
  5
da
  8
Layer_1
  10
334.93912
  20
325.67365
  0
VERTEX
  5
db
  8
Layer_1
  10
335.46677
  20
326.08398
  0
VERTEX
  5
dc
  8
Layer_1
  10
335.69324
  20
326.27585
  0
VERTEX
  5
dd
  8
Layer_1
  10
335.88083
  20
326.50586
  0
VERTEX
  5
de
  8
Layer_1
  10
335.93057
  20
326.61652
  0
VERTEX
  5
df
  8
Layer_1
  10
335.94714
  20
326.73438
  0
VERTEX
  5
e0
  8
Layer_1
  10
335.93057
  20
326.85226
  0
VERTEX
  5
e1
  8
Layer_1
  10
335.88083
  20
326.96289
  0
VERTEX
  5
e2
  8
Layer_1
  10
335.75342
  20
327.07559
  0
VERTEX
  5
e3
  8
Layer_1
  10
335.599
  20
327.13336
  0
VERTEX
  5
e4
  8
Layer_1
  10
335.43411
  20
327.13327
  0
VERTEX
  5
e5
  8
Layer_1
  10
335.27536
  20
327.07227
  0
VERTEX
  5
e6
  8
Layer_1
  10
335.20203
  20
327.00385
  0
VERTEX
  5
e7
  8
Layer_1
  10
335.14343
  20
326.92346
  0
VERTEX
  5
e8
  8
Layer_1
  10
335.10101
  20
326.83353
  0
VERTEX
  5
e9
  8
Layer_1
  10
335.07614
  20
326.73633
  0
VERTEX
  5
ea
  8
Layer_1
  10
335.0488
  20
326.5957
  0
VERTEX
  5
eb
  8
Layer_1
  10
334.0527
  20
326.67773
  0
VERTEX
  5
ec
  8
Layer_1
  10
334.1261
  20
327.01703
  0
VERTEX
  5
ed
  8
Layer_1
  10
334.26755
  20
327.33398
  0
VERTEX
  5
ee
  8
Layer_1
  10
334.4234
  20
327.50766
  0
VERTEX
  5
ef
  8
Layer_1
  10
334.60999
  20
327.64365
  0
VERTEX
  5
f0
  8
Layer_1
  10
334.82065
  20
327.73807
  0
VERTEX
  5
f1
  8
Layer_1
  10
335.0488
  20
327.78711
  0
VERTEX
  5
f2
  8
Layer_1
  10
335.39584
  20
327.8161
  0
VERTEX
  5
f3
  8
Layer_1
  10
335.74411
  20
327.81445
  0
SEQEND
  0
POLYLINE
  5
f5
  8
Layer_1
  62
12
  70
1
  66
1
  10
0
  20
0
  30
0
  0
VERTEX
  5
f5
  8
Layer_1
  10
339.1738
  20
325.18164
  0
VERTEX
  5
f6
  8
Layer_1
  10
339.97067
  20
327.75977
  0
VERTEX
  5
f7
  8
Layer_1
  10
341.09177
  20
327.75977
  0
VERTEX
  5
f8
  8
Layer_1
  10
339.76364
  20
324.18164
  0
VERTEX
  5
f9
  8
Layer_1
  10
338.56442
  20
324.18164
  0
VERTEX
  5
fa
  8
Layer_1
  10
337.21286
  20
327.75977
  0
VERTEX
  5
fb
  8
Layer_1
  10
338.36911
  20
327.75977
  0
VERTEX
  5
fc
  8
Layer_1
  10
339.1738
  20
325.18164
  0
SEQEND
  0
POLYLINE
  5
fe
  8
Layer_1
  62
12
  70
1
  66
1
  10
0
  20
0
  30
0
  0
VERTEX
  5
fe
  8
Layer_1
  10
301.6348
  20
335.89929
  0
VERTEX
  5
ff
  8
Layer_1
  10
301.86948
  20
335.87479
  0
VERTEX
  5
100
  8
Layer_1
  10
302.09851
  20
335.82184
  0
VERTEX
  5
101
  8
Layer_1
  10
302.31934
  20
335.74121
  0
VERTEX
  5
102
  8
Layer_1
  10
302.52933
  20
335.63367
  0
VERTEX
  5
103
  8
Layer_1
  10
302.76843
  20
335.44891
  0
VERTEX
  5
104
  8
Layer_1
  10
302.96478
  20
335.22305
  0
VERTEX
  5
105
  8
Layer_1
  10
303.11334
  20
334.96326
  0
VERTEX
  5
106
  8
Layer_1
  10
303.20901
  20
334.67664
  0
VERTEX
  5
107
  8
Layer_1
  10
303.26773
  20
334.32391
  0
VERTEX
  5
108
  8
Layer_1
  10
303.27875
  20
333.96811
  0
VERTEX
  5
109
  8
Layer_1
  10
303.24219
  20
333.61404
  0
VERTEX
  5
10a
  8
Layer_1
  10
303.15823
  20
333.26648
  0
VERTEX
  5
10b
  8
Layer_1
  10
303.01431
  20
332.95853
  0
VERTEX
  5
10c
  8
Layer_1
  10
302.80804
  20
332.69354
  0
VERTEX
  5
10d
  8
Layer_1
  10
302.54837
  20
332.48062
  0
VERTEX
  5
10e
  8
Layer_1
  10
302.24417
  20
332.32898
  0
VERTEX
  5
10f
  8
Layer_1
  10
301.98224
  20
332.25806
  0
VERTEX
  5
110
  8
Layer_1
  10
301.71503
  20
332.21536
  0
VERTEX
  5
111
  8
Layer_1
  10
301.44482
  20
332.20117
  0
VERTEX
  5
112
  8
Layer_1
  10
301.17386
  20
332.2157
  0
VERTEX
  5
113
  8
Layer_1
  10
300.80835
  20
332.27338
  0
VERTEX
  5
114
  8
Layer_1
  10
300.45901
  20
332.39539
  0
VERTEX
  5
115
  8
Layer_1
  10
300.26544
  20
332.51099
  0
VERTEX
  5
116
  8
Layer_1
  10
300.09229
  20
332.65353
  0
VERTEX
  5
117
  8
Layer_1
  10
299.94235
  20
332.82031
  0
VERTEX
  5
118
  8
Layer_1
  10
299.81839
  20
333.00867
  0
VERTEX
  5
119
  8
Layer_1
  10
299.73019
  20
333.18396
  0
VERTEX
  5
11a
  8
Layer_1
  10
299.66141
  20
333.36719
  0
VERTEX
  5
11b
  8
Layer_1
  10
299.61252
  20
333.55664
  0
VERTEX
  5
11c
  8
Layer_1
  10
299.58401
  20
333.75085
  0
VERTEX
  5
11d
  8
Layer_1
  10
299.56836
  20
333.97757
  0
VERTEX
  5
11e
  8
Layer_1
  10
299.57233
  20
334.20438
  0
VERTEX
  5
11f
  8
Layer_1
  10
299.59579
  20
334.43002
  0
VERTEX
  5
120
  8
Layer_1
  10
299.6387
  20
334.6532
  0
VERTEX
  5
121
  8
Layer_1
  10
299.70404
  20
334.86713
  0
VERTEX
  5
122
  8
Layer_1
  10
299.79736
  20
335.06677
  0
VERTEX
  5
123
  8
Layer_1
  10
299.91641
  20
335.24982
  0
VERTEX
  5
124
  8
Layer_1
  10
300.05896
  20
335.41403
  0
VERTEX
  5
125
  8
Layer_1
  10
300.22269
  20
335.5571
  0
VERTEX
  5
126
  8
Layer_1
  10
300.40533
  20
335.67676
  0
VERTEX
  5
127
  8
Layer_1
  10
300.60468
  20
335.77075
  0
VERTEX
  5
128
  8
Layer_1
  10
300.81839
  20
335.83679
  0
VERTEX
  5
129
  8
Layer_1
  10
301.22412
  20
335.90021
  0
VERTEX
  5
12a
  8
Layer_1
  10
301.6348
  20
335.89929
  0
SEQEND
  0
POLYLINE
  5
12c
  8
Layer_1
  62
12
  70
1
  66
1
  10
0
  20
0
  30
0
  0
VERTEX
  5
12c
  8
Layer_1
  10
298.22464
  20
335.82507
  0
VERTEX
  5
12d
  8
Layer_1
  10
298.46683
  20
335.77429
  0
VERTEX
  5
12e
  8
Layer_1
  10
298.67386
  20
335.68445
  0
VERTEX
  5
12f
  8
Layer_1
  10
298.84183
  20
335.55945
  0
VERTEX
  5
130
  8
Layer_1
  10
298.97507
  20
335.39862
  0
VERTEX
  5
131
  8
Layer_1
  10
299.06839
  20
335.21179
  0
VERTEX
  5
132
  8
Layer_1
  10
299.12549
  20
334.97641
  0
VERTEX
  5
133
  8
Layer_1
  10
299.14319
  20
334.73651
  0
VERTEX
  5
134
  8
Layer_1
  10
299.12152
  20
334.49695
  0
VERTEX
  5
135
  8
Layer_1
  10
299.06058
  20
334.26257
  0
VERTEX
  5
136
  8
Layer_1
  10
298.95901
  20
334.06726
  0
VERTEX
  5
137
  8
Layer_1
  10
298.81448
  20
333.89929
  0
VERTEX
  5
138
  8
Layer_1
  10
298.63089
  20
333.76648
  0
VERTEX
  5
139
  8
Layer_1
  10
298.40433
  20
333.66882
  0
VERTEX
  5
13a
  8
Layer_1
  10
298.1348
  20
333.61023
  0
VERTEX
  5
13b
  8
Layer_1
  10
297.67599
  20
333.59094
  0
VERTEX
  5
13c
  8
Layer_1
  10
297.21683
  20
333.5946
  0
VERTEX
  5
13d
  8
Layer_1
  10
297.21683
  20
332.26648
  0
VERTEX
  5
13e
  8
Layer_1
  10
296.10355
  20
332.26648
  0
VERTEX
  5
13f
  8
Layer_1
  10
296.10355
  20
335.8446
  0
VERTEX
  5
140
  8
Layer_1
  10
297.94339
  20
335.8446
  0
VERTEX
  5
141
  8
Layer_1
  10
298.22464
  20
335.82507
  0
SEQEND
  0
POLYLINE
  5
143
  8
Layer_1
  62
12
  70
1
  66
1
  10
0
  20
0
  30
0
  0
VERTEX
  5
143
  8
Layer_1
  10
304.81839
  20
333.8407
  0
VERTEX
  5
144
  8
Layer_1
  10
305.37308
  20
335.8446
  0
VERTEX
  5
145
  8
Layer_1
  10
306.41995
  20
335.8446
  0
VERTEX
  5
146
  8
Layer_1
  10
306.97464
  20
333.8446
  0
VERTEX
  5
147
  8
Layer_1
  10
307.35355
  20
335.8446
  0
VERTEX
  5
148
  8
Layer_1
  10
308.39651
  20
335.8446
  0
VERTEX
  5
149
  8
Layer_1
  10
307.60745
  20
332.26648
  0
VERTEX
  5
14a
  8
Layer_1
  10
306.52542
  20
332.26648
  0
VERTEX
  5
14b
  8
Layer_1
  10
305.89651
  20
334.51648
  0
VERTEX
  5
14c
  8
Layer_1
  10
305.27151
  20
332.26648
  0
VERTEX
  5
14d
  8
Layer_1
  10
304.18558
  20
332.26648
  0
VERTEX
  5
14e
  8
Layer_1
  10
303.39261
  20
335.8446
  0
VERTEX
  5
14f
  8
Layer_1
  10
304.43948
  20
335.8446
  0
VERTEX
  5
150
  8
Layer_1
  10
304.81839
  20
333.8407
  0
SEQEND
  0
POLYLINE
  5
152
  8
Layer_1
  62
12
  70
1
  66
1
  10
0
  20
0
  30
0
  0
VERTEX
  5
152
  8
Layer_1
  10
311.72073
  20
335.07898
  0
VERTEX
  5
153
  8
Layer_1
  10
309.86526
  20
335.07898
  0
VERTEX
  5
154
  8
Layer_1
  10
309.86526
  20
334.51257
  0
VERTEX
  5
155
  8
Layer_1
  10
311.58792
  20
334.51257
  0
VERTEX
  5
156
  8
Layer_1
  10
311.58792
  20
333.7821
  0
VERTEX
  5
157
  8
Layer_1
  10
309.86526
  20
333.7821
  0
VERTEX
  5
158
  8
Layer_1
  10
309.86526
  20
333.07507
  0
VERTEX
  5
159
  8
Layer_1
  10
311.77542
  20
333.07507
  0
VERTEX
  5
15a
  8
Layer_1
  10
311.77542
  20
332.26648
  0
VERTEX
  5
15b
  8
Layer_1
  10
308.75589
  20
332.26648
  0
VERTEX
  5
15c
  8
Layer_1
  10
308.75589
  20
335.8446
  0
VERTEX
  5
15d
  8
Layer_1
  10
311.72073
  20
335.8446
  0
VERTEX
  5
15e
  8
Layer_1
  10
311.72073
  20
335.07898
  0
SEQEND
  0
POLYLINE
  5
160
  8
Layer_1
  62
12
  70
1
  66
1
  10
0
  20
0
  30
0
  0
VERTEX
  5
160
  8
Layer_1
  10
314.45901
  20
335.83679
  0
VERTEX
  5
161
  8
Layer_1
  10
314.80157
  20
335.80389
  0
VERTEX
  5
162
  8
Layer_1
  10
315.13089
  20
335.70398
  0
VERTEX
  5
163
  8
Layer_1
  10
315.33762
  20
335.54767
  0
VERTEX
  5
164
  8
Layer_1
  10
315.49017
  20
335.34418
  0
VERTEX
  5
165
  8
Layer_1
  10
315.58124
  20
335.10669
  0
VERTEX
  5
166
  8
Layer_1
  10
315.60355
  20
334.84851
  0
VERTEX
  5
167
  8
Layer_1
  10
315.56421
  20
334.54358
  0
VERTEX
  5
168
  8
Layer_1
  10
315.43509
  20
334.27249
  0
VERTEX
  5
169
  8
Layer_1
  10
315.22906
  20
334.05405
  0
VERTEX
  5
16a
  8
Layer_1
  10
314.95901
  20
333.9071
  0
VERTEX
  5
16b
  8
Layer_1
  10
314.74026
  20
333.8446
  0
VERTEX
  5
16c
  8
Layer_1
  10
314.88821
  20
333.78973
  0
VERTEX
  5
16d
  8
Layer_1
  10
315.02542
  20
333.71179
  0
VERTEX
  5
16e
  8
Layer_1
  10
315.20923
  20
333.52109
  0
VERTEX
  5
16f
  8
Layer_1
  10
315.35745
  20
333.30164
  0
VERTEX
  5
170
  8
Layer_1
  10
315.89651
  20
332.26648
  0
VERTEX
  5
171
  8
Layer_1
  10
314.64651
  20
332.26648
  0
VERTEX
  5
172
  8
Layer_1
  10
314.05276
  20
333.36023
  0
VERTEX
  5
173
  8
Layer_1
  10
313.96677
  20
333.50684
  0
VERTEX
  5
174
  8
Layer_1
  10
313.85355
  20
333.63367
  0
VERTEX
  5
175
  8
Layer_1
  10
313.67633
  20
333.70325
  0
VERTEX
  5
176
  8
Layer_1
  10
313.48636
  20
333.7157
  0
VERTEX
  5
177
  8
Layer_1
  10
313.48636
  20
332.26648
  0
VERTEX
  5
178
  8
Layer_1
  10
312.37308
  20
332.26648
  0
VERTEX
  5
179
  8
Layer_1
  10
312.37308
  20
335.8446
  0
VERTEX
  5
17a
  8
Layer_1
  10
314.21683
  20
335.8446
  0
VERTEX
  5
17b
  8
Layer_1
  10
314.45901
  20
335.83679
  0
SEQEND
  0
POLYLINE
  5
17d
  8
Layer_1
  62
12
  70
1
  66
1
  10
0
  20
0
  30
0
  0
VERTEX
  5
17d
  8
Layer_1
  10
301.25589
  20
335.05164
  0
VERTEX
  5
17e
  8
Layer_1
  10
301.11014
  20
335.0051
  0
VERTEX
  5
17f
  8
Layer_1
  10
300.9808
  20
334.92712
  0
VERTEX
  5
180
  8
Layer_1
  10
300.8728
  20
334.82159
  0
VERTEX
  5
181
  8
Layer_1
  10
300.79105
  20
334.69226
  0
VERTEX
  5
182
  8
Layer_1
  10
300.70007
  20
334.37601
  0
VERTEX
  5
183
  8
Layer_1
  10
300.67776
  20
334.04773
  0
VERTEX
  5
184
  8
Layer_1
  10
300.68719
  20
333.81354
  0
VERTEX
  5
185
  8
Layer_1
  10
300.72855
  20
333.58289
  0
VERTEX
  5
186
  8
Layer_1
  10
300.78632
  20
333.41696
  0
VERTEX
  5
187
  8
Layer_1
  10
300.87698
  20
333.26648
  0
VERTEX
  5
188
  8
Layer_1
  10
300.99197
  20
333.16196
  0
VERTEX
  5
189
  8
Layer_1
  10
301.12567
  20
333.08655
  0
VERTEX
  5
18a
  8
Layer_1
  10
301.27274
  20
333.04248
  0
VERTEX
  5
18b
  8
Layer_1
  10
301.42776
  20
333.0321
  0
VERTEX
  5
18c
  8
Layer_1
  10
301.65857
  20
333.06189
  0
VERTEX
  5
18d
  8
Layer_1
  10
301.86917
  20
333.16101
  0
VERTEX
  5
18e
  8
Layer_1
  10
301.98352
  20
333.26862
  0
VERTEX
  5
18f
  8
Layer_1
  10
302.06448
  20
333.4032
  0
VERTEX
  5
190
  8
Layer_1
  10
302.15253
  20
333.74362
  0
VERTEX
  5
191
  8
Layer_1
  10
302.17386
  20
334.0946
  0
VERTEX
  5
192
  8
Layer_1
  10
302.16431
  20
334.31519
  0
VERTEX
  5
193
  8
Layer_1
  10
302.12308
  20
334.5321
  0
VERTEX
  5
194
  8
Layer_1
  10
302.06183
  20
334.69003
  0
VERTEX
  5
195
  8
Layer_1
  10
301.97073
  20
334.83289
  0
VERTEX
  5
196
  8
Layer_1
  10
301.88867
  20
334.91272
  0
VERTEX
  5
197
  8
Layer_1
  10
301.79468
  20
334.97665
  0
VERTEX
  5
198
  8
Layer_1
  10
301.6911
  20
335.02338
  0
VERTEX
  5
199
  8
Layer_1
  10
301.58011
  20
335.05164
  0
VERTEX
  5
19a
  8
Layer_1
  10
301.418
  20
335.06726
  0
VERTEX
  5
19b
  8
Layer_1
  10
301.25589
  20
335.05164
  0
SEQEND
  0
POLYLINE
  5
19d
  8
Layer_1
  62
12
  70
1
  66
1
  10
0
  20
0
  30
0
  0
VERTEX
  5
19d
  8
Layer_1
  10
297.21683
  20
335.11804
  0
VERTEX
  5
19e
  8
Layer_1
  10
297.21683
  20
334.31726
  0
VERTEX
  5
19f
  8
Layer_1
  10
297.4892
  20
334.31332
  0
VERTEX
  5
1a0
  8
Layer_1
  10
297.7598
  20
334.3446
  0
VERTEX
  5
1a1
  8
Layer_1
  10
297.88284
  20
334.38956
  0
VERTEX
  5
1a2
  8
Layer_1
  10
297.97986
  20
334.47202
  0
VERTEX
  5
1a3
  8
Layer_1
  10
298.043
  20
334.58255
  0
VERTEX
  5
1a4
  8
Layer_1
  10
298.06448
  20
334.71179
  0
VERTEX
  5
1a5
  8
Layer_1
  10
298.0498
  20
334.83777
  0
VERTEX
  5
1a6
  8
Layer_1
  10
297.99496
  20
334.94827
  0
VERTEX
  5
1a7
  8
Layer_1
  10
297.90649
  20
335.0343
  0
VERTEX
  5
1a8
  8
Layer_1
  10
297.79105
  20
335.08679
  0
VERTEX
  5
1a9
  8
Layer_1
  10
297.66132
  20
335.11182
  0
VERTEX
  5
1aa
  8
Layer_1
  10
297.52933
  20
335.11804
  0
VERTEX
  5
1ab
  8
Layer_1
  10
297.21683
  20
335.11804
  0
SEQEND
  0
POLYLINE
  5
1ad
  8
Layer_1
  62
12
  70
1
  66
1
  10
0
  20
0
  30
0
  0
VERTEX
  5
1ad
  8
Layer_1
  10
313.48636
  20
335.12195
  0
VERTEX
  5
1ae
  8
Layer_1
  10
313.48636
  20
334.39539
  0
VERTEX
  5
1af
  8
Layer_1
  10
313.99808
  20
334.39539
  0
VERTEX
  5
1b0
  8
Layer_1
  10
314.17429
  20
334.42874
  0
VERTEX
  5
1b1
  8
Layer_1
  10
314.34573
  20
334.48132
  0
VERTEX
  5
1b2
  8
Layer_1
  10
314.44141
  20
334.58459
  0
VERTEX
  5
1b3
  8
Layer_1
  10
314.48938
  20
334.71191
  0
VERTEX
  5
1b4
  8
Layer_1
  10
314.48703
  20
334.84793
  0
VERTEX
  5
1b5
  8
Layer_1
  10
314.43167
  20
334.97742
  0
VERTEX
  5
1b6
  8
Layer_1
  10
314.36481
  20
335.03824
  0
VERTEX
  5
1b7
  8
Layer_1
  10
314.28708
  20
335.08218
  0
VERTEX
  5
1b8
  8
Layer_1
  10
314.20154
  20
335.10794
  0
VERTEX
  5
1b9
  8
Layer_1
  10
314.11136
  20
335.11414
  0
VERTEX
  5
1ba
  8
Layer_1
  10
313.79895
  20
335.12671
  0
VERTEX
  5
1bb
  8
Layer_1
  10
313.48636
  20
335.12195
  0
SEQEND
  0
CIRCLE
  5
1bd
  8
Layer_0
  62
0
  10
306
  20
316.0499
  30
0
  40
9.9499998
  0
CIRCLE
  5
1bd
  8
Layer_0
  62
0
  10
336
  20
316.0499
  30
0
  40
4
  0
POLYLINE
  5
1bd
  8
Layer_0
  62
0
  70
1
  66
1
  10
0
  20
0
  30
0
  0
VERTEX
  5
1bd
  8
Layer_0
  10
425.5
  20
-7.7900085
  0
VERTEX
  5
1be
  8
Layer_0
  10
425.5
  20
163.79001
  0
VERTEX
  5
1bf
  8
Layer_0
  10
370.5
  20
163.79001
  0
VERTEX
  5
1c0
  8
Layer_0
  10
370.5
  20
-7.7900085
  0
VERTEX
  5
1c1
  8
Layer_0
  10
425.5
  20
-7.7900085
  0
SEQEND
  0
POLYLINE
  5
1c3
  8
Layer_0
  62
0
  70
1
  66
1
  10
0
  20
0
  30
0
  0
VERTEX
  5
1c3
  8
Layer_0
  10
419.5
  20
175.20999
  0
VERTEX
  5
1c4
  8
Layer_0
  10
419.5
  20
346.79001
  0
VERTEX
  5
1c5
  8
Layer_0
  10
364.5
  20
346.79001
  0
VERTEX
  5
1c6
  8
Layer_0
  10
364.5
  20
175.20999
  0
VERTEX
  5
1c7
  8
Layer_0
  10
419.5
  20
175.20999
  0
SEQEND
  0
POLYLINE
  5
1c9
  8
Layer_0
  62
0
  66
1
  10
0
  20
0
  30
0
  0
VERTEX
  5
1c9
  8
Layer_0
  10
220.27422
  20
264.34152
  0
VERTEX
  5
1ca
  8
Layer_0
  10
220.2742
  20
248.5741
  0
SEQEND
  0
POLYLINE
  5
1cc
  8
Layer_0
  62
0
  66
1
  10
0
  20
0
  30
0
  0
VERTEX
  5
1cc
  8
Layer_0
  10
236.08788
  20
248.57411
  0
VERTEX
  5
1cd
  8
Layer_0
  10
220.27422
  20
264.34152
  0
SEQEND
  0
CIRCLE
  5
1cf
  8
Layer_0
  62
0
  10
224.65523
  20
252.86995
  30
0
  40
2
  0
POLYLINE
  5
1cf
  8
Layer_0
  62
0
  66
1
  10
0
  20
0
  30
0
  0
VERTEX
  5
1cf
  8
Layer_0
  10
220.2742
  20
248.5741
  0
VERTEX
  5
1d0
  8
Layer_0
  10
236.08788
  20
248.5741
  0
SEQEND
  0
POLYLINE
  5
1d2
  8
Layer_0
  62
0
  66
1
  10
0
  20
0
  30
0
  0
VERTEX
  5
1d2
  8
Layer_0
  10
201.77422
  20
264.84152
  0
VERTEX
  5
1d3
  8
Layer_0
  10
201.7742
  20
249.0741
  0
SEQEND
  0
POLYLINE
  5
1d5
  8
Layer_0
  62
0
  66
1
  10
0
  20
0
  30
0
  0
VERTEX
  5
1d5
  8
Layer_0
  10
217.58788
  20
249.07411
  0
VERTEX
  5
1d6
  8
Layer_0
  10
201.77422
  20
264.84152
  0
SEQEND
  0
CIRCLE
  5
1d8
  8
Layer_0
  62
0
  10
206.15523
  20
253.36995
  30
0
  40
2
  0
POLYLINE
  5
1d8
  8
Layer_0
  62
0
  66
1
  10
0
  20
0
  30
0
  0
VERTEX
  5
1d8
  8
Layer_0
  10
201.7742
  20
249.0741
  0
VERTEX
  5
1d9
  8
Layer_0
  10
217.58788
  20
249.0741
  0
SEQEND
  0
POLYLINE
  5
1db
  8
Layer_0
  62
0
  66
1
  10
0
  20
0
  30
0
  0
VERTEX
  5
1db
  8
Layer_0
  10
218.58786
  20
250.07411
  0
VERTEX
  5
1dc
  8
Layer_0
  10
218.58786
  20
265.84152
  0
SEQEND
  0
POLYLINE
  5
1de
  8
Layer_0
  62
0
  66
1
  10
0
  20
0
  30
0
  0
VERTEX
  5
1de
  8
Layer_0
  10
202.7742
  20
265.84152
  0
VERTEX
  5
1df
  8
Layer_0
  10
218.58786
  20
250.0741
  0
SEQEND
  0
CIRCLE
  5
1e1
  8
Layer_0
  62
0
  10
214.20685
  20
261.54568
  30
0
  40
2
  0
POLYLINE
  5
1e1
  8
Layer_0
  62
0
  66
1
  10
0
  20
0
  30
0
  0
VERTEX
  5
1e1
  8
Layer_0
  10
218.58786
  20
265.84152
  0
VERTEX
  5
1e2
  8
Layer_0
  10
202.7742
  20
265.84152
  0
SEQEND
  0
POLYLINE
  5
1e4
  8
Layer_0
  62
0
  66
1
  10
0
  20
0
  30
0
  0
VERTEX
  5
1e4
  8
Layer_0
  10
237.08786
  20
249.57411
  0
VERTEX
  5
1e5
  8
Layer_0
  10
237.08786
  20
265.34152
  0
SEQEND
  0
POLYLINE
  5
1e7
  8
Layer_0
  62
0
  66
1
  10
0
  20
0
  30
0
  0
VERTEX
  5
1e7
  8
Layer_0
  10
221.2742
  20
265.34152
  0
VERTEX
  5
1e8
  8
Layer_0
  10
237.08786
  20
249.5741
  0
SEQEND
  0
CIRCLE
  5
1ea
  8
Layer_0
  62
0
  10
232.70685
  20
261.04568
  30
0
  40
2
  0
POLYLINE
  5
1ea
  8
Layer_0
  62
0
  66
1
  10
0
  20
0
  30
0
  0
VERTEX
  5
1ea
  8
Layer_0
  10
237.08786
  20
265.34152
  0
VERTEX
  5
1eb
  8
Layer_0
  10
221.2742
  20
265.34152
  0
SEQEND
  0
CIRCLE
  5
1ed
  8
Layer_0
  62
0
  10
269.569
  20
272.6329
  30
0
  40
1.6
  0
CIRCLE
  5
1ed
  8
Layer_0
  62
0
  10
194.38303
  20
241.3674
  30
0
  40
1.6
  0
POLYLINE
  5
1ed
  8
Layer_0
  62
0
  70
1
  66
1
  10
0
  20
0
  30
0
  0
VERTEX
  5
1ed
  8
Layer_0
  10
267.79703
  20
269.32001
  0
VERTEX
  5
1ee
  8
Layer_0
  10
196.29703
  20
269.32001
  0
VERTEX
  5
1ef
  8
Layer_0
  10
196.29703
  20
244.82001
  0
VERTEX
  5
1f0
  8
Layer_0
  10
267.79703
  20
244.82001
  0
VERTEX
  5
1f1
  8
Layer_0
  10
267.79703
  20
269.32001
  0
SEQEND
  0
CIRCLE
  5
1f3
  8
Layer_0
  62
0
  10
194.47601
  20
272.6232
  30
0
  40
1.6
  0
CIRCLE
  5
1f3
  8
Layer_0
  62
0
  10
269.61801
  20
241.37541
  30
0
  40
1.6
  0
CIRCLE
  5
1f3
  8
Layer_0
  62
0
  10
302
  20
257
  30
0
  40
2.5
  0
POLYLINE
  5
1f3
  8
Layer_0
  62
0
  70
1
  66
1
  10
0
  20
0
  30
0
  0
VERTEX
  5
1f3
  8
Layer_0
  10
357
  20
284.5
  0
VERTEX
  5
1f4
  8
Layer_0
  10
107
  20
284.5
  0
VERTEX
  5
1f5
  8
Layer_0
  10
107
  20
229.5
  0
VERTEX
  5
1f6
  8
Layer_0
  10
357
  20
229.5
  0
VERTEX
  5
1f7
  8
Layer_0
  10
357
  20
284.5
  0
SEQEND
  0
POLYLINE
  5
1f9
  8
Layer_0
  62
0
  70
1
  66
1
  10
0
  20
0
  30
0
  0
VERTEX
  5
1f9
  8
Layer_0
  10
366.03818
  20
2
  0
VERTEX
  5
1fa
  8
Layer_0
  10
115.96181
  20
2
  0
VERTEX
  5
1fb
  8
Layer_0
  10
115.96181
  20
-178
  0
VERTEX
  5
1fc
  8
Layer_0
  10
366.03818
  20
-178
  0
VERTEX
  5
1fd
  8
Layer_0
  10
366.03818
  20
2
  0
SEQEND
  0
CIRCLE
  5
1ff
  8
Layer_0
  62
0
  10
124.54823
  20
-6.5678711
  30
0
  40
2.0000007
  0
CIRCLE
  5
1ff
  8
Layer_0
  62
0
  10
357.52917
  20
-169.44519
  30
0
  40
2
  0
CIRCLE
  5
1ff
  8
Layer_0
  62
0
  10
124.50826
  20
-169.52087
  30
0
  40
2.0000007
  0
CIRCLE
  5
1ff
  8
Layer_0
  62
0
  10
357.47321
  20
-6.5432739
  30
0
  40
1.9999926
  0
ENDSEC
  0
EOF
